<svg width="634" height="380" viewBox="0 0 634 380" fill="none" xmlns="http://www.w3.org/2000/svg">
<path fill-rule="evenodd" clip-rule="evenodd" d="M46 5V10H41.5H37L37.001 14.75L37 19H33H28.195V24.5V28.575H23.5H19V33.8411V38.3411H14H10V43.3411V47.3411H0L7.62939e-06 252.405V277.85H4.44501H8.89001L9.19501 282.6L9.50001 287.35L13.75 287.657L18 287.965V292.407V296.85H22.5H27V301.85V306.85H32H37V311.85V316.85H41.5H46V321.35V325.85H82.984H119.967L120.5 379.35L139 379.425V379.35V369.85H148V360.85H157.11V350.85H166V341.85H176V331.85H185V325.85H588V316.35H597.11V306.85H606V296.85H615V287.85H619.5H624V277.847L629 277.85H634V47.5H624.5V38.5H615.5V28.416H605.805V24.25V18.416H597V10H588V5V0H46V5ZM587 14.559V19H596V23.945V28.916L605.5 29V39H615V43.5V48H624V277.847L619.25 277.848L614.5 277.847V287.35H605V296.85H596V306.85H587V311.35V315.85H184V322.35V322.39H175.195V331.85H166V340.85H156.5V350.925L147 350.85L147.001 360.35H137.89V369.85H130V315.85H88H46V311.35V306.85H41.5H37V301.85V296.85H32.5H28L28.001 292.1L28.003 287.35H23.751H19.5L19.195 282.6L18.89 277.85H14.445H10V252.35L10 48H14.5H19V43.5V39H23.5H28.5V34.575V28.89H33.5H38V23.945V19H42.5H47V14.502V10.005H587V14.559Z" fill="black"/>
<path fill-rule="evenodd" clip-rule="evenodd" d="M587 14.554V18.995H596V23.94V28.911L605.5 28.995V38.995H615V43.495V47.995H624V277.842L619.25 277.843L614.5 277.842V287.345H605V296.845H596V306.845H587V311.345V315.845H184V322.345V322.385H175.195V331.845H166V340.845H156.5V350.92L147 350.845L147.001 360.345H137.89V369.845H130V315.845H88H46V311.345V306.845H41.5H37V301.845V296.845H32.5H28L28.001 292.095L28.003 287.345H23.751H19.5L19.195 282.595L18.89 277.845H14.445H10V252.345L10 47.995H14.5H19V43.495V38.995H23.5H28.5V34.57V28.885H33.5H38V23.94V18.995H42.5H47V14.497V10H587V14.554Z" fill="white"/>
</svg>
