<svg width="81" height="81" viewBox="0 0 81 81" fill="none" xmlns="http://www.w3.org/2000/svg">
<path fill-rule="evenodd" clip-rule="evenodd" d="M24.363 3L22.662 3.00002V5.68212V7.89713H20.2116H17.6501V10.4146V13.3195H16.4935H15.3369H14.1803H12.6382V15.6433V17.9672H10.3251H8.01188V20.7364V23.3933L5.6987 23.3895H3V40.4311V57.8599L5.50914 57.908H7.9818L8.01188 60.6199V62.895H10.3251H12.6382V65.6061V68.3173H15.3369H18.0356V70.6411V72.965H20.3002H23.0475V75.5852V78H40.3963H57.7451V75.7712V72.965H60.4924H62.757V70.6411V68.3173H65.4557H68.1544V65.6061V62.895H70.4675H72.7807V60.6199V58.6415L75.3082 58.6346L77.4357 58.6415V50.6872V43.7156H71.2672H64.3277H63.5566H63.1711V45.6522V47.976H60.4724H58.1592L58.1306 50.4523V52.7266H55.6218H53.1474V55.7222V58.2473H40.3963H28.1573V55.7222V52.9698H25.1679H22.662V40.3823V28.0372H25.3607H28.0594V25.326V22.7063H35.3888H48.6522V26.6413H42.7095V38.1072H60.4584H78V20.583V3.01936L70.4675 3H63.1425V5.63757V7.89713H60.4438H57.7451V5.63757V3H41.7118H25.5195H24.363Z" fill="white" stroke="#080808" stroke-width="5"/>
</svg>
